<svg width="115" height="33" viewBox="0 0 115 33" fill="none" xmlns="http://www.w3.org/2000/svg">
<path fill-rule="evenodd" clip-rule="evenodd" d="M18.2324 29.2415L18.9551 28.0202C19.5151 27.0735 19.7951 26.5988 20.2458 26.3375C20.6964 26.0748 21.2631 26.0655 22.3964 26.0455C24.0711 26.0175 25.1204 25.9148 26.0004 25.5495C26.8093 25.2145 27.5442 24.7234 28.1633 24.1043C28.7823 23.4853 29.2734 22.7504 29.6084 21.9415C30.1164 20.7175 30.1164 19.1642 30.1164 16.0575V14.7242C30.1164 10.3602 30.1164 8.17751 29.1338 6.57484C28.5844 5.67777 27.8305 4.92344 26.9338 4.37351C25.3298 3.39084 23.1471 3.39084 18.7831 3.39084H14.7831C10.4191 3.39084 8.23642 3.39084 6.63375 4.37351C5.73668 4.92289 4.98235 5.67677 4.43242 6.57351C3.44975 8.17751 3.44975 10.3615 3.44975 14.7242V16.0575C3.44975 19.1642 3.44975 20.7175 3.95642 21.9415C4.2916 22.7505 4.78288 23.4855 5.40217 24.1046C6.02147 24.7236 6.75666 25.2146 7.56575 25.5495C8.44575 25.9148 9.49509 26.0162 11.1698 26.0455C12.3031 26.0655 12.8698 26.0748 13.3204 26.3375C13.7698 26.5988 14.0511 27.0722 14.6111 28.0202L15.3338 29.2415C15.9778 30.3295 17.5871 30.3295 18.2324 29.2415ZM16.7831 9.05751C17.0483 9.05751 17.3027 9.16286 17.4902 9.3504C17.6777 9.53793 17.7831 9.79229 17.7831 10.0575V20.7242C17.7831 20.9894 17.6777 21.2437 17.4902 21.4313C17.3027 21.6188 17.0483 21.7242 16.7831 21.7242C16.5179 21.7242 16.2635 21.6188 16.076 21.4313C15.8884 21.2437 15.7831 20.9894 15.7831 20.7242V10.0575C15.7831 9.79229 15.8884 9.53793 16.076 9.3504C16.2635 9.16286 16.5179 9.05751 16.7831 9.05751ZM12.4498 12.7242C12.4498 12.459 12.3444 12.2046 12.1569 12.0171C11.9693 11.8295 11.715 11.7242 11.4498 11.7242C11.1845 11.7242 10.9302 11.8295 10.7426 12.0171C10.5551 12.2046 10.4498 12.459 10.4498 12.7242V18.0575C10.4498 18.3227 10.5551 18.5771 10.7426 18.7646C10.9302 18.9521 11.1845 19.0575 11.4498 19.0575C11.715 19.0575 11.9693 18.9521 12.1569 18.7646C12.3444 18.5771 12.4498 18.3227 12.4498 18.0575V12.7242ZM22.1164 11.7242C22.3816 11.7242 22.636 11.8295 22.8235 12.0171C23.0111 12.2046 23.1164 12.459 23.1164 12.7242V18.0575C23.1164 18.3227 23.0111 18.5771 22.8235 18.7646C22.636 18.9521 22.3816 19.0575 22.1164 19.0575C21.8512 19.0575 21.5969 18.9521 21.4093 18.7646C21.2218 18.5771 21.1164 18.3227 21.1164 18.0575V12.7242C21.1164 12.459 21.2218 12.2046 21.4093 12.0171C21.5969 11.8295 21.8512 11.7242 22.1164 11.7242Z" fill="#16a34a"/>
<path d="M53.3681 12.1588H50.1806C50.0897 11.6361 49.9221 11.1731 49.6777 10.7696C49.4334 10.3606 49.1294 10.014 48.7658 9.72987C48.4022 9.44578 47.9874 9.23271 47.5215 9.09067C47.0613 8.94294 46.5641 8.86907 46.03 8.86907C45.0811 8.86907 44.2402 9.10771 43.5073 9.58498C42.7743 10.0566 42.2005 10.7498 41.7857 11.6645C41.3709 12.5736 41.1635 13.6844 41.1635 14.9969C41.1635 16.3321 41.3709 17.4571 41.7857 18.3719C42.2061 19.281 42.78 19.9685 43.5073 20.4344C44.2402 20.8946 45.0783 21.1248 46.0215 21.1248C46.5442 21.1248 47.0329 21.0566 47.4874 20.9202C47.9476 20.7782 48.3596 20.5708 48.7232 20.2981C49.0925 20.0253 49.4022 19.6901 49.6522 19.2924C49.9079 18.8946 50.084 18.4401 50.1806 17.9287L53.3681 17.9458C53.2488 18.7753 52.9902 19.5537 52.5925 20.281C52.2005 21.0083 51.6863 21.6503 51.0499 22.2071C50.4135 22.7583 49.6692 23.1901 48.8169 23.5026C47.9647 23.8094 47.0186 23.9628 45.9789 23.9628C44.4448 23.9628 43.0755 23.6077 41.8709 22.8975C40.6664 22.1873 39.7175 21.1617 39.0243 19.8208C38.3311 18.4799 37.9846 16.8719 37.9846 14.9969C37.9846 13.1162 38.334 11.5083 39.0329 10.1731C39.7317 8.83214 40.6834 7.80657 41.888 7.09635C43.0925 6.38612 44.4561 6.03101 45.9789 6.03101C46.9505 6.03101 47.8539 6.16737 48.6891 6.4401C49.5243 6.71282 50.2686 7.11339 50.9221 7.6418C51.5755 8.16453 52.1124 8.80657 52.5329 9.56794C52.959 10.3236 53.2374 11.1873 53.3681 12.1588Z" fill="black"/>
<path d="M59.2125 16.0537V23.7242H56.1273V6.26964H59.1444V12.8577H59.2978C59.6046 12.1191 60.079 11.5367 60.7211 11.1106C61.3688 10.6787 62.1927 10.4628 63.1927 10.4628C64.1017 10.4628 64.8944 10.6532 65.5705 11.0338C66.2466 11.4145 66.7694 11.9713 67.1387 12.7043C67.5137 13.4373 67.7012 14.3321 67.7012 15.389V23.7242H64.616V15.8662C64.616 14.9856 64.3887 14.3009 63.9341 13.8123C63.4853 13.3179 62.8546 13.0708 62.0421 13.0708C61.4966 13.0708 61.008 13.1901 60.5762 13.4287C60.15 13.6617 59.8148 13.9998 59.5705 14.4429C59.3319 14.8861 59.2125 15.4231 59.2125 16.0537Z" fill="black"/>
<path d="M74.6131 23.9884C73.7836 23.9884 73.0364 23.8407 72.3716 23.5452C71.7125 23.2441 71.1898 22.8009 70.8035 22.2157C70.4228 21.6304 70.2324 20.9088 70.2324 20.0509C70.2324 19.3123 70.3688 18.7015 70.6415 18.2185C70.9142 17.7356 71.2864 17.3492 71.758 17.0594C72.2296 16.7696 72.7608 16.5509 73.3517 16.4032C73.9483 16.2498 74.5648 16.139 75.2012 16.0708C75.9682 15.9912 76.5904 15.9202 77.0677 15.8577C77.5449 15.7895 77.8915 15.6873 78.1074 15.5509C78.329 15.4088 78.4398 15.1901 78.4398 14.8946V14.8435C78.4398 14.2015 78.2495 13.7043 77.8688 13.352C77.4881 12.9998 76.9398 12.8236 76.2239 12.8236C75.4682 12.8236 74.8688 12.9884 74.4256 13.3179C73.9881 13.6475 73.6927 14.0367 73.5392 14.4856L70.6586 14.0765C70.8858 13.281 71.2608 12.6162 71.7836 12.0821C72.3063 11.5424 72.9455 11.139 73.7012 10.8719C74.4569 10.5992 75.2921 10.4628 76.2069 10.4628C76.8375 10.4628 77.4654 10.5367 78.0904 10.6844C78.7154 10.8321 79.2864 11.0765 79.8035 11.4174C80.3205 11.7526 80.7353 12.21 81.0478 12.7895C81.3659 13.3691 81.525 14.0935 81.525 14.9628V23.7242H78.5591V21.9259H78.4569C78.2694 22.2895 78.0052 22.6304 77.6642 22.9486C77.329 23.2611 76.9057 23.514 76.3944 23.7071C75.8887 23.8946 75.2949 23.9884 74.6131 23.9884ZM75.4142 21.7213C76.0336 21.7213 76.5705 21.5992 77.025 21.3549C77.4796 21.1049 77.829 20.7753 78.0733 20.3662C78.3233 19.9571 78.4483 19.5111 78.4483 19.0282V17.4856C78.3517 17.5651 78.187 17.639 77.954 17.7071C77.7267 17.7753 77.4711 17.835 77.187 17.8861C76.9029 17.9373 76.6216 17.9827 76.3432 18.0225C76.0648 18.0623 75.8233 18.0963 75.6188 18.1248C75.1586 18.1873 74.7466 18.2895 74.383 18.4316C74.0194 18.5736 73.7324 18.7725 73.5222 19.0282C73.312 19.2782 73.2069 19.602 73.2069 19.9998C73.2069 20.5679 73.4142 20.9969 73.829 21.2867C74.2438 21.5765 74.7722 21.7213 75.4142 21.7213Z" fill="black"/>
<path d="M91.1642 10.6333V13.0196H83.6387V10.6333H91.1642ZM85.4966 7.49692H88.5819V19.7867C88.5819 20.2015 88.6444 20.5196 88.7694 20.7412C88.9 20.9571 89.0705 21.1049 89.2807 21.1844C89.491 21.264 89.7239 21.3037 89.9796 21.3037C90.1728 21.3037 90.3489 21.2895 90.508 21.2611C90.6728 21.2327 90.7978 21.2071 90.883 21.1844L91.4029 23.5963C91.2381 23.6532 91.0023 23.7157 90.6955 23.7838C90.3944 23.852 90.025 23.8918 89.5875 23.9032C88.8148 23.9259 88.1188 23.8094 87.4995 23.5537C86.8802 23.2924 86.3887 22.889 86.025 22.3435C85.6671 21.7981 85.4909 21.1162 85.4966 20.2981V7.49692Z" fill="black"/>
<path d="M100.281 10.6333V13.0196H92.7559V10.6333H100.281ZM94.6138 7.49692H97.699V19.7867C97.699 20.2015 97.7615 20.5196 97.8865 20.7412C98.0172 20.9571 98.1877 21.1049 98.3979 21.1844C98.6081 21.264 98.8411 21.3037 99.0968 21.3037C99.29 21.3037 99.4661 21.2895 99.6252 21.2611C99.79 21.2327 99.915 21.2071 100 21.1844L100.52 23.5963C100.355 23.6532 100.12 23.7157 99.8127 23.7838C99.5115 23.852 99.1422 23.8918 98.7047 23.9032C97.932 23.9259 97.236 23.8094 96.6167 23.5537C95.9973 23.2924 95.5059 22.889 95.1422 22.3435C94.7843 21.7981 94.6081 21.1162 94.6138 20.2981V7.49692Z" fill="black"/>
<path d="M104.779 28.6333C104.359 28.6333 103.97 28.5992 103.612 28.531C103.259 28.4685 102.978 28.3946 102.768 28.3094L103.484 25.906C103.933 26.0367 104.333 26.0992 104.686 26.0935C105.038 26.0878 105.347 25.977 105.615 25.7611C105.887 25.5509 106.117 25.1986 106.305 24.7043L106.569 23.9969L101.822 10.6333H105.095L108.112 20.5196H108.248L111.274 10.6333H114.555L109.313 25.3094C109.069 26.0026 108.745 26.5963 108.342 27.0907C107.938 27.5907 107.444 27.9713 106.859 28.2327C106.279 28.4998 105.586 28.6333 104.779 28.6333Z" fill="black"/>
</svg>
